<svg xmlns="http://www.w3.org/2000/svg" viewBox="0 0 1024 1024" width="1024" height="1024">
<defs><linearGradient id="bg" x1="0" y1="0" x2="1" y2="1"><stop offset="0" stop-color="#6366f1"/><stop offset="1" stop-color="#3730a3"/></linearGradient><filter id="shadow0.45" x="-30%" y="-30%" width="160%" height="160%"><feGaussianBlur in="SourceAlpha" stdDeviation="28"/><feOffset dy="34"/><feComponentTransfer><feFuncA type="linear" slope="0.45"/></feComponentTransfer><feMerge><feMergeNode/><feMergeNode in="SourceGraphic"/></feMerge></filter><filter id="shadow0.22" x="-30%" y="-30%" width="160%" height="160%"><feGaussianBlur in="SourceAlpha" stdDeviation="28"/><feOffset dy="34"/><feComponentTransfer><feFuncA type="linear" slope="0.22"/></feComponentTransfer><feMerge><feMergeNode/><feMergeNode in="SourceGraphic"/></feMerge></filter>
<filter id="glow" x="-50%" y="-300%" width="200%" height="700%"><feGaussianBlur stdDeviation="18"/></filter></defs>
<rect width="1024" height="1024" fill="url(#bg)"/>
<g transform=""><ellipse cx="512" cy="470" rx="380" ry="300" fill="#818cf8" opacity="0.35" filter="url(#glow)"/>
<g transform="translate(512,528) rotate(-7) translate(-210.0,-300.0)" filter="url(#shadow0.45)">
  <path d="M0,0 H420 V600 L405.0,578 L390.0,600 L375.0,578 L360.0,600 L345.0,578 L330.0,600 L315.0,578 L300.0,600 L285.0,578 L270.0,600 L255.0,578 L240.0,600 L225.0,578 L210.0,600 L195.0,578 L180.0,600 L165.0,578 L150.0,600 L135.0,578 L120.0,600 L105.0,578 L90.0,600 L75.0,578 L60.0,600 L45.0,578 L30.0,600 L15.0,578 L0.0,600 Z" fill="#fdfcf7"/>
  <rect x="48" y="78" width="190" height="26" rx="13" fill="#26241f"/>
<rect x="48" y="148" width="300" height="16" rx="8" fill="#c9c5bb"/>
<rect x="48" y="194" width="250" height="16" rx="8" fill="#c9c5bb"/>
<rect x="48" y="240" width="280" height="16" rx="8" fill="#c9c5bb"/>
<rect x="28" y="272" width="364" height="46" rx="10" fill="#fef3c7"/>
<rect x="48" y="286" width="230" height="16" rx="8" fill="#d6b45f"/>
<rect x="312" y="286" width="60" height="16" rx="8" fill="#d6b45f"/>
<rect x="48" y="348" width="270" height="16" rx="8" fill="#c9c5bb"/>
<rect x="48" y="394" width="220" height="16" rx="8" fill="#c9c5bb"/>
<rect x="48" y="454" width="324" height="4" rx="2" fill="#c9c5bb"/>
<rect x="48" y="484" width="120" height="24" rx="12" fill="#26241f"/>
<rect x="262" y="484" width="110" height="24" rx="12" fill="#26241f"/>
</g>
<rect x="176" y="500" width="672" height="10" rx="5" fill="#c7d2fe" opacity="0.9" filter="url(#glow)"/>
<rect x="176" y="502" width="672" height="6" rx="3" fill="#ffffff" opacity="0.95"/>
<path d="M300,150 H150 V300" fill="none" stroke="#ffffff" stroke-width="44" stroke-linecap="round" stroke-linejoin="round"/><path d="M724,150 H874 V300" fill="none" stroke="#ffffff" stroke-width="44" stroke-linecap="round" stroke-linejoin="round"/><path d="M300,874 H150 V724" fill="none" stroke="#ffffff" stroke-width="44" stroke-linecap="round" stroke-linejoin="round"/><path d="M724,874 H874 V724" fill="none" stroke="#ffffff" stroke-width="44" stroke-linecap="round" stroke-linejoin="round"/></g>
</svg>